<svg width="683" height="592" viewBox="0 0 683 592" fill="none" xmlns="http://www.w3.org/2000/svg">
<path d="M40.5891 1.49746C27.3891 5.76413 16.3225 13.8975 8.85581 25.2308C-0.877525 40.0308 -0.210858 22.4308 0.189142 252.297L0.589142 458.964L4.72248 467.631C9.38914 477.364 18.9891 488.031 27.9225 493.364C40.9891 500.964 40.8558 500.964 149.656 500.964H249.656L248.722 508.164C247.789 517.097 243.256 529.764 234.722 548.164C226.989 564.697 226.056 568.431 227.789 575.231C229.256 580.297 235.256 587.231 240.856 590.164C244.989 592.297 437.522 592.297 441.656 590.164C446.856 587.497 453.122 580.564 454.722 576.031C456.722 569.764 455.522 564.697 448.056 548.697C439.522 530.431 434.722 517.097 433.789 508.164L432.856 500.964H532.856C641.656 500.964 641.522 500.964 654.589 493.364C663.522 488.031 673.122 477.364 677.789 467.631L681.922 458.964L682.322 252.297C682.722 22.4308 683.389 40.0308 673.656 25.2308C667.522 16.1641 659.922 9.6308 649.256 4.4308L640.589 0.297463L343.256 0.030796C105.656 -0.102537 44.8558 0.164129 40.5891 1.49746ZM632.589 49.6308L635.922 52.8308V204.697V356.564L632.456 359.764L628.989 362.964H341.256H53.5225L50.0558 359.764L46.5891 356.564V204.697V52.8308L49.9225 49.6308L53.1225 46.2975H341.256H629.389L632.589 49.6308Z" fill="#ececec"/>
</svg>
