<svg width="411" height="683" viewBox="0 0 411 683" fill="none" xmlns="http://www.w3.org/2000/svg">
<path d="M64.0962 1.98989C60.0962 2.92322 51.8295 6.25656 45.4295 9.32322C29.0295 17.4566 16.8962 29.8566 8.76285 46.7899C5.42951 53.7232 1.96285 62.9232 1.16285 67.3232C0.0961812 73.0566 -0.170485 151.59 0.0961813 345.323L0.496181 615.323L3.42951 623.99C12.0962 649.19 30.8962 668.39 56.8962 678.523L65.8295 681.99L200.496 682.39C295.563 682.657 337.563 682.39 343.163 681.323C347.563 680.523 356.763 677.057 363.696 673.723C381.163 665.323 393.163 653.323 401.563 635.857C404.896 628.923 408.23 620.123 409.03 616.257C411.03 606.257 411.03 76.3899 409.03 66.3899C408.23 62.5232 404.896 53.7232 401.563 46.7899C393.163 29.3232 381.163 17.3232 363.696 8.92322C356.763 5.58989 347.963 2.25656 344.096 1.45656C333.163 -0.810111 73.4295 -0.276777 64.0962 1.98989ZM370.496 311.323V507.99H205.163H39.8295V311.323V114.657H205.163H370.496V311.323ZM221.296 554.39C244.763 564.79 250.763 597.057 232.63 615.057C224.363 623.323 218.096 625.857 205.83 625.99C197.03 625.99 193.963 625.457 188.63 622.657C175.563 615.99 167.83 603.057 167.83 587.857C167.83 578.39 173.963 565.59 181.43 559.59C192.496 550.657 208.496 548.657 221.296 554.39Z" fill="#ececec"/>
</svg>
