<svg width="502" height="683" viewBox="0 0 502 683" fill="none" xmlns="http://www.w3.org/2000/svg">
<path d="M29.7667 2.7102C21.1 6.04354 10.1667 15.7769 6.03333 23.7769C4.3 27.2435 2.3 33.5102 1.5 37.9102C-0.5 48.9769 -0.5 633.51 1.5 644.577C2.3 648.977 4.3 655.244 6.03333 658.71C10.3 666.977 21.1 676.444 30.1667 679.777C37.3667 682.577 38.8333 682.577 250.7 682.577C462.567 682.577 464.033 682.577 471.233 679.777C485.633 674.444 496.967 660.444 499.9 644.71C501.9 633.51 501.9 48.9769 499.9 37.9102C499.1 33.5102 497.1 27.2435 495.367 23.7769C491.1 15.5102 480.3 6.04354 471.233 2.7102C464.033 -0.089798 462.567 -0.089798 250.3 0.0435354C40.0333 0.0435354 36.5667 0.0435354 29.7667 2.7102ZM453.367 320.577V585.244H250.7H48.0333V320.577V55.9102H250.7H453.367V320.577ZM257.767 612.044C268.167 614.844 277.233 626.844 277.367 637.644C277.5 666.177 237.1 674.044 226.033 647.644C220.433 634.177 228.033 617.51 242.167 612.577C248.567 610.31 251.233 610.177 257.767 612.044Z" fill="#ececec"/>
</svg>
